<?xml version="1.0" standalone="no"?>
<!DOCTYPE svg PUBLIC "-//W3C//DTD SVG 20010904//EN"
 "http://www.w3.org/TR/2001/REC-SVG-20010904/DTD/svg10.dtd">
<svg version="1.0" xmlns="http://www.w3.org/2000/svg"
 width="260.000000pt" height="260.000000pt" viewBox="0 0 260.000000 260.000000"
 preserveAspectRatio="xMidYMid meet">
<metadata>
Created by potrace 1.14, written by Peter Selinger 2001-2017
</metadata>
<g transform="translate(0.000000,260.000000) scale(0.100000,-0.100000)"
fill="#000000" stroke="none">
<path d="M2355 2545 c-20 -70 -11 -102 35 -127 41 -22 107 -23 134 -3 11 8 23
15 28 15 14 0 9 -57 -6 -70 -18 -14 -40 -77 -38 -105 2 -28 30 -47 52 -35 30
16 40 67 40 201 l0 129 -26 0 c-16 0 -36 -11 -52 -30 -20 -22 -35 -30 -60 -30
-30 0 -33 2 -26 23 5 12 8 36 9 52 0 27 -3 30 -37 33 -36 3 -36 3 -53 -53z"/>
<path d="M2067 2493 c-14 -13 -6 -47 18 -79 14 -18 25 -42 25 -53 0 -13 11
-26 29 -36 16 -8 44 -35 61 -59 75 -104 145 -82 165 51 12 79 -62 141 -155
129 -43 -6 -48 -4 -68 24 -21 28 -59 40 -75 23z m209 -147 c3 -8 4 -23 2 -33
-3 -14 -7 -12 -26 15 -23 32 -23 32 -2 32 11 0 23 -6 26 -14z"/>
<path d="M1844 2446 c-45 -20 -124 -99 -124 -124 0 -27 33 -46 58 -33 9 5 33
25 51 45 55 56 119 49 160 -18 32 -51 29 -186 -4 -186 -20 0 -84 77 -106 126
-17 40 -22 45 -46 42 -30 -3 -40 -29 -29 -73 8 -33 80 -126 123 -157 53 -40
84 -37 128 14 19 23 38 53 42 66 11 43 -4 137 -30 188 -30 58 -59 88 -109 109
-45 18 -73 19 -114 1z"/>
<path d="M1574 2320 c-24 -9 -94 -90 -118 -137 -12 -24 -23 -32 -48 -35 -27
-2 -34 -8 -36 -29 -2 -20 4 -32 27 -48 17 -12 46 -46 64 -74 51 -78 130 -205
144 -230 21 -37 53 -58 73 -47 26 14 32 40 15 66 -17 26 -19 38 -6 30 19 -12
44 9 63 53 28 64 37 259 15 314 -11 25 -22 37 -36 37 -11 0 -27 13 -37 29 -31
52 -85 84 -120 71z m46 -109 c15 -29 12 -70 -10 -133 -14 -41 -17 -64 -11 -81
18 -46 60 -39 80 13 8 22 10 18 10 -26 1 -30 -6 -66 -17 -88 l-19 -38 -29 39
c-16 21 -40 60 -54 86 -14 27 -37 62 -51 80 l-26 31 21 34 c28 45 76 102 87
102 4 0 13 -9 19 -19z"/>
<path d="M597 2163 c-4 -6 -10 -27 -16 -49 -5 -21 -25 -97 -44 -169 -20 -75
-40 -179 -47 -245 -6 -63 -20 -140 -30 -170 -11 -30 -29 -88 -40 -127 -13 -46
-26 -73 -35 -73 -20 0 -45 -40 -45 -72 0 -15 -5 -30 -10 -33 -13 -8 -13 -52 0
-60 17 -11 11 -127 -10 -190 -11 -33 -22 -72 -25 -87 -3 -14 -17 -41 -32 -59
-23 -27 -28 -44 -31 -100 -4 -60 -2 -68 17 -78 31 -17 71 25 71 73 0 21 10 50
25 72 14 20 29 55 35 78 5 22 18 61 27 86 9 25 19 75 21 113 l4 67 122 0 123
0 -33 -131 c-41 -161 -72 -230 -116 -258 -52 -31 -67 -69 -88 -213 -5 -31 -15
-71 -24 -90 -24 -52 -46 -121 -46 -145 0 -12 8 -26 17 -31 37 -19 83 19 83 67
0 17 6 21 35 21 20 0 48 -8 62 -17 21 -14 52 -19 133 -20 58 -2 149 -5 203 -9
89 -5 104 -3 176 22 71 24 93 39 217 146 77 66 155 130 174 142 47 31 108 100
116 131 10 40 -3 87 -57 197 -122 250 -176 327 -279 396 -34 22 -67 43 -73 45
-8 3 -5 12 10 28 44 49 75 138 80 234 8 140 -4 158 -226 364 -25 22 -65 48
-90 57 -26 9 -59 22 -76 29 -89 39 -267 76 -278 58z m136 -99 c213 -66 218
-68 336 -184 l111 -108 0 -95 c0 -104 -18 -160 -72 -228 -28 -35 -31 -36 -63
-26 -22 7 -68 7 -135 1 -56 -5 -104 -6 -106 -2 -9 15 -53 8 -62 -9 -5 -10 -12
-36 -16 -58 -4 -22 -14 -59 -23 -83 l-16 -42 -128 0 c-104 0 -129 3 -129 14 0
8 7 16 15 20 37 14 121 289 136 446 16 168 66 370 91 370 5 0 33 -7 61 -16z
m222 -759 c-33 -19 -78 -40 -100 -46 -22 -5 -49 -13 -59 -16 -15 -4 -18 -2
-11 13 4 11 10 31 12 46 6 30 19 33 153 36 l65 1 -60 -34z m235 -14 c91 -61
135 -116 220 -276 64 -121 83 -166 86 -207 6 -60 24 -40 -166 -193 -58 -47
-127 -105 -153 -129 -72 -66 -156 -90 -279 -81 -51 4 -136 7 -189 6 -75 -1
-99 2 -109 14 -7 8 -29 18 -50 21 l-37 6 9 47 c28 150 29 154 73 198 61 61 91
129 134 305 l38 153 69 16 c97 23 208 78 257 128 28 28 46 27 97 -8z"/>
</g>
</svg>
